<svg width="12" height="13" viewBox="0 0 12 13" fill="none" xmlns="http://www.w3.org/2000/svg">
<g clip-path="url(#clip0_5_5771)">
<path d="M2.56055 6.33984C2.56055 6.09984 2.65388 5.89984 2.84055 5.73984L8.00055 0.579844C8.16055 0.419844 8.35388 0.339844 8.58055 0.339844C8.80721 0.339844 9.00721 0.419844 9.18055 0.579844C9.35388 0.739844 9.44055 0.939844 9.44055 1.17984C9.44055 1.41984 9.34721 1.61984 9.16055 1.77984L4.60055 6.33984L9.16055 10.8998C9.32055 11.0598 9.40055 11.2598 9.40055 11.4998C9.40055 11.7398 9.32055 11.9398 9.16055 12.0998C9.00055 12.2598 8.80721 12.3398 8.58055 12.3398C8.35388 12.3398 8.16055 12.2598 8.00055 12.0998L2.84055 6.93984C2.65388 6.77984 2.56055 6.57984 2.56055 6.33984Z" fill="#050B20"/>
</g>
<defs>
<clipPath id="clip0_5_5771">
<rect width="12" height="12" fill="white" transform="matrix(1 0 0 -1 0 12.3398)"/>
</clipPath>
</defs>
</svg>
