<svg width="12" height="13" viewBox="0 0 12 13" fill="none" xmlns="http://www.w3.org/2000/svg">
<g clip-path="url(#clip0_5_5774)">
<path d="M9.17652 6.93984L4.02083 12.0998C3.86096 12.2598 3.66779 12.3398 3.44131 12.3398C3.21484 12.3398 3.015 12.2598 2.84181 12.0998C2.66863 11.9398 2.58203 11.7398 2.58203 11.4998C2.58203 11.2598 2.67529 11.0598 2.8618 10.8998L7.41799 6.33984L2.8618 1.77984C2.67529 1.61984 2.58203 1.41984 2.58203 1.17984C2.58203 0.939844 2.66863 0.739844 2.84181 0.579844C3.015 0.419844 3.21484 0.339844 3.44131 0.339844C3.66779 0.339844 3.86096 0.419844 4.02083 0.579844L9.17652 5.73984C9.36303 5.89984 9.45628 6.09984 9.45628 6.33984C9.45628 6.57984 9.36303 6.77984 9.17652 6.93984Z" fill="#050B20"/>
</g>
<defs>
<clipPath id="clip0_5_5774">
<rect width="11.96" height="12" fill="white" transform="matrix(1 0 0 -1 0.0195312 12.3398)"/>
</clipPath>
</defs>
</svg>
